<svg width="42" height="42" viewBox="0 0 42 42" fill="none" xmlns="http://www.w3.org/2000/svg">
<mask id="mask0_3113_1216" style="mask-type:alpha" maskUnits="userSpaceOnUse" x="0" y="0" width="42" height="42">
<rect width="42" height="42" fill="#D9D9D9"/>
</mask>
<g mask="url(#mask0_3113_1216)">
<path d="M5.78856 34.125C4.90452 34.125 4.15625 33.8188 3.54375 33.2063C2.93125 32.5938 2.625 31.8455 2.625 30.9614V11.0386C2.625 10.1545 2.93125 9.40625 3.54375 8.79375C4.15625 8.18125 4.90452 7.875 5.78856 7.875H36.2114C37.0955 7.875 37.8438 8.18125 38.4563 8.79375C39.0688 9.40625 39.375 10.1545 39.375 11.0386V30.9614C39.375 31.8455 39.0688 32.5938 38.4563 33.2063C37.8438 33.8188 37.0955 34.125 36.2114 34.125H5.78856ZM5.78856 31.5H36.2114C36.3686 31.5 36.4977 31.4495 36.5986 31.3486C36.6995 31.2477 36.75 31.1186 36.75 30.9614V11.0386C36.75 10.8814 36.6995 10.7523 36.5986 10.6514C36.4977 10.5505 36.3686 10.5 36.2114 10.5H5.78856C5.63135 10.5 5.50229 10.5505 5.40138 10.6514C5.30046 10.7523 5.25 10.8814 5.25 11.0386V30.9614C5.25 31.1186 5.30046 31.2477 5.40138 31.3486C5.50229 31.4495 5.63135 31.5 5.78856 31.5ZM6.46144 25.9809H8.27881V19.418L12.8761 25.9809H14.6729V16.0191H12.8559V22.582L8.34619 16.0191H6.46144V25.9809ZM16.8941 25.9809H23.3559V24.1636H18.9809V21.9691H23.3559V20.1521H18.9809V17.8364H23.3559V16.0191H16.8941V25.9809ZM27.0576 25.9809H34.0576C34.4861 25.9809 34.84 25.8412 35.1194 25.5618C35.3989 25.2824 35.5386 24.9285 35.5386 24.5V16.0191H33.7212V23.8941H31.4934V17.7691H29.6761V23.8941H27.3941V16.0191H25.5771V24.5C25.5771 24.9285 25.7167 25.2824 25.9958 25.5618C26.2752 25.8412 26.6292 25.9809 27.0576 25.9809Z" fill="#0D81FE"/>
</g>
</svg>
