<svg width="42" height="42" viewBox="0 0 42 42" fill="none" xmlns="http://www.w3.org/2000/svg">
<mask id="mask0_3175_1851" style="mask-type:alpha" maskUnits="userSpaceOnUse" x="0" y="0" width="42" height="42">
<rect width="42" height="42" fill="#D9D9D9"/>
</mask>
<g mask="url(#mask0_3175_1851)">
<path d="M7.53856 35.875C6.65452 35.875 5.90625 35.5688 5.29375 34.9563C4.68125 34.3438 4.375 33.5955 4.375 32.7114V9.28856C4.375 8.40452 4.68125 7.65625 5.29375 7.04375C5.90625 6.43125 6.65452 6.125 7.53856 6.125H34.4614C35.3455 6.125 36.0938 6.43125 36.7063 7.04375C37.3188 7.65625 37.625 8.40452 37.625 9.28856V32.7114C37.625 33.5955 37.3188 34.3438 36.7063 34.9563C36.0938 35.5688 35.3455 35.875 34.4614 35.875H7.53856ZM7.53856 33.25H34.4614C34.5962 33.25 34.7196 33.1939 34.8316 33.0816C34.9439 32.9696 35 32.8462 35 32.7114V9.28856C35 9.15381 34.9439 9.03044 34.8316 8.91844C34.7196 8.80614 34.5962 8.75 34.4614 8.75H7.53856C7.40381 8.75 7.28044 8.80614 7.16844 8.91844C7.05615 9.03044 7 9.15381 7 9.28856V32.7114C7 32.8462 7.05615 32.9696 7.16844 33.0816C7.28044 33.1939 7.40381 33.25 7.53856 33.25ZM9.1875 29.3125H17.0625V26.6875H9.1875V29.3125ZM25.4625 25.6274L33.5024 17.5875L31.6312 15.7163L25.4625 21.9288L22.9688 19.4351L21.1413 21.3063L25.4625 25.6274ZM9.1875 22.3125H17.0625V19.6875H9.1875V22.3125ZM9.1875 15.3125H17.0625V12.6875H9.1875V15.3125Z" fill="#0D81FE"/>
</g>
</svg>
