<svg width="42" height="43" viewBox="0 0 42 43" fill="none" xmlns="http://www.w3.org/2000/svg">
<mask id="mask0_3113_1239" style="mask-type:alpha" maskUnits="userSpaceOnUse" x="0" y="0" width="42" height="43">
<rect y="0.28125" width="42" height="42" fill="#D9D9D9"/>
</mask>
<g mask="url(#mask0_3113_1239)">
<path d="M21.0031 37.9062C18.7036 37.9062 16.5422 37.4699 14.5189 36.5973C12.4956 35.7246 10.7357 34.5403 9.23912 33.0443C7.74258 31.5484 6.55769 29.7892 5.68444 27.7668C4.81148 25.7443 4.375 23.5835 4.375 21.2843C4.375 18.9848 4.81133 16.8234 5.684 14.8001C6.55667 12.7768 7.74098 11.0169 9.23694 9.52037C10.7329 8.02383 12.4921 6.83894 14.5145 5.96569C16.5369 5.09273 18.6977 4.65625 20.9969 4.65625C23.2964 4.65625 25.4578 5.09258 27.4811 5.96525C29.5044 6.83792 31.2643 8.02223 32.7609 9.51819C34.2574 11.0141 35.4423 12.7733 36.3156 14.7958C37.1885 16.8182 37.625 18.979 37.625 21.2782C37.625 23.5777 37.1887 25.7391 36.316 27.7624C35.4433 29.7857 34.259 31.5456 32.7631 33.0421C31.2671 34.5387 29.5079 35.7236 27.4855 36.5968C25.4631 37.4698 23.3023 37.9062 21.0031 37.9062ZM21 35.2812C24.9083 35.2812 28.2188 33.925 30.9313 31.2125C33.6438 28.5 35 25.1896 35 21.2812C35 17.3729 33.6438 14.0625 30.9313 11.35C28.2188 8.6375 24.9083 7.28125 21 7.28125C17.0917 7.28125 13.7813 8.6375 11.0688 11.35C8.35625 14.0625 7 17.3729 7 21.2812C7 25.1896 8.35625 28.5 11.0688 31.2125C13.7813 33.925 17.0917 35.2812 21 35.2812ZM20.5625 29.5938H23.1875V12.9688H17.0625V15.5938H20.5625V29.5938Z" fill="#0D81FE"/>
</g>
</svg>
