<svg width="42" height="43" viewBox="0 0 42 43" fill="none" xmlns="http://www.w3.org/2000/svg">
<mask id="mask0_3125_1405" style="mask-type:alpha" maskUnits="userSpaceOnUse" x="0" y="0" width="42" height="43">
<rect y="0.28125" width="42" height="42" fill="#D9D9D9"/>
</mask>
<g mask="url(#mask0_3125_1405)">
<path d="M3.04207 30.7881L7.15151 23.6368C7.05059 23.6928 6.93276 23.732 6.79801 23.7544C6.66326 23.7769 6.52865 23.7881 6.3942 23.7881C4.61503 23.7881 3.10449 23.1621 1.86257 21.9099C0.620945 20.6578 0.000132561 19.1525 0.000132561 17.3941C0.000132561 15.6149 0.620945 14.1044 1.86257 12.8624C3.10449 11.6208 4.61503 11 6.3942 11C8.15265 11 9.65795 11.6208 10.9101 12.8624C12.1622 14.1044 12.7883 15.613 12.7883 17.3884C12.7883 18.007 12.7137 18.581 12.5647 19.1104C12.4154 19.6398 12.197 20.1446 11.9098 20.625L6.05732 30.7881H3.04207ZM18.5904 30.7881L22.6994 23.6368C22.5985 23.6928 22.4806 23.732 22.3459 23.7544C22.2114 23.7769 22.0768 23.7881 21.9421 23.7881C20.1629 23.7881 18.6525 23.1621 17.4109 21.9099C16.169 20.6578 15.548 19.1525 15.548 17.3941C15.548 15.6038 16.169 14.0905 17.4109 12.8541C18.6525 11.618 20.1629 11 21.9421 11C23.7005 11 25.2058 11.6208 26.4579 12.8624C27.7101 14.1044 28.3361 15.613 28.3361 17.3884C28.3361 18.007 28.2616 18.581 28.1126 19.1104C27.9632 19.6398 27.7451 20.1446 27.4581 20.625L21.6056 30.7881H18.5904Z" fill="#0D81FE"/>
</g>
</svg>
