<svg width="42" height="42" viewBox="0 0 42 42" fill="none" xmlns="http://www.w3.org/2000/svg">
<mask id="mask0_3113_1228" style="mask-type:alpha" maskUnits="userSpaceOnUse" x="0" y="0" width="42" height="42">
<rect width="42" height="42" fill="#D9D9D9"/>
</mask>
<g mask="url(#mask0_3113_1228)">
<path d="M20.9974 7.875C24.6607 7.875 27.7645 9.14623 30.3087 11.6887C32.8529 14.2311 34.125 17.334 34.125 20.9974C34.125 24.6607 32.8538 27.7645 30.3113 30.3087C27.7689 32.8529 24.666 34.125 21.0026 34.125C17.3393 34.125 14.2355 32.8538 11.6913 30.3113C9.1471 27.7689 7.875 24.666 7.875 21.0026C7.875 17.3393 9.14623 14.2355 11.6887 11.6913C14.2311 9.1471 17.334 7.875 20.9974 7.875ZM21 31.5C23.9167 31.5 26.3958 30.4792 28.4375 28.4375C30.4792 26.3958 31.5 23.9167 31.5 21C31.5 18.0833 30.4792 15.6042 28.4375 13.5625C26.3958 11.5208 23.9167 10.5 21 10.5C18.0833 10.5 15.6042 11.5208 13.5625 13.5625C11.5208 15.6042 10.5 18.0833 10.5 21C10.5 23.9167 11.5208 26.3958 13.5625 28.4375C15.6042 30.4792 18.0833 31.5 21 31.5ZM21 26.7886C22.3215 26.7886 23.514 26.4211 24.5774 25.6861C25.6409 24.9514 26.4114 23.9727 26.8892 22.75H15.1108C15.5886 23.9727 16.3591 24.9514 17.4226 25.6861C18.486 26.4211 19.6785 26.7886 21 26.7886ZM15.1108 17.5031C15.1108 17.9519 15.2626 18.3273 15.5662 18.6292C15.8699 18.9308 16.2463 19.0816 16.6954 19.0816C17.1443 19.0816 17.5197 18.9298 17.8216 18.6261C18.1231 18.3225 18.2739 17.9461 18.2739 17.4969C18.2739 17.0481 18.1221 16.6727 17.8185 16.3708C17.5149 16.0692 17.1385 15.9184 16.6893 15.9184C16.2404 15.9184 15.8651 16.0703 15.5632 16.3739C15.2616 16.6775 15.1108 17.0539 15.1108 17.5031ZM23.7261 17.5031C23.7261 17.9519 23.8779 18.3273 24.1815 18.6292C24.4851 18.9308 24.8615 19.0816 25.3107 19.0816C25.7596 19.0816 26.1349 18.9298 26.4368 18.6261C26.7384 18.3225 26.8892 17.9461 26.8892 17.4969C26.8892 17.0481 26.7374 16.6727 26.4338 16.3708C26.1301 16.0692 25.7537 15.9184 25.3046 15.9184C24.8557 15.9184 24.4803 16.0703 24.1784 16.3739C23.8769 16.6775 23.7261 17.0539 23.7261 17.5031ZM2.625 10.5V5.78856C2.625 4.91852 2.93475 4.17375 3.55425 3.55425C4.17375 2.93475 4.91852 2.625 5.78856 2.625H10.5V5.25H5.78856C5.63135 5.25 5.50229 5.30046 5.40138 5.40138C5.30046 5.50229 5.25 5.63135 5.25 5.78856V10.5H2.625ZM10.5 39.375H5.78856C4.91852 39.375 4.17375 39.0652 3.55425 38.4457C2.93475 37.8262 2.625 37.0815 2.625 36.2114V31.5H5.25V36.2114C5.25 36.3686 5.30046 36.4977 5.40138 36.5986C5.50229 36.6995 5.63135 36.75 5.78856 36.75H10.5V39.375ZM31.5 39.2066V36.5816H36.2114C36.3686 36.5816 36.4977 36.5311 36.5986 36.4302C36.6995 36.3293 36.75 36.2002 36.75 36.043V31.3316H39.375V36.043C39.375 36.913 39.0652 37.6578 38.4457 38.2773C37.8262 38.8968 37.0815 39.2066 36.2114 39.2066H31.5ZM36.75 10.5V5.78856C36.75 5.63135 36.6995 5.50229 36.5986 5.40138C36.4977 5.30046 36.3686 5.25 36.2114 5.25H31.5V2.625H36.2114C37.0815 2.625 37.8262 2.93475 38.4457 3.55425C39.0652 4.17375 39.375 4.91852 39.375 5.78856V10.5H36.75Z" fill="#0D81FE"/>
</g>
</svg>
