<svg width="42" height="43" viewBox="0 0 42 43" fill="none" xmlns="http://www.w3.org/2000/svg">
<mask id="mask0_3113_1245" style="mask-type:alpha" maskUnits="userSpaceOnUse" x="0" y="0" width="42" height="43">
<rect y="0.28125" width="42" height="42" fill="#D9D9D9"/>
</mask>
<g mask="url(#mask0_3113_1245)">
<path d="M21.0031 37.9062C18.7036 37.9062 16.5422 37.4699 14.5189 36.5973C12.4956 35.7246 10.7357 34.5403 9.23912 33.0443C7.74258 31.5484 6.55769 29.7892 5.68444 27.7668C4.81148 25.7443 4.375 23.5835 4.375 21.2843C4.375 18.9848 4.81133 16.8234 5.684 14.8001C6.55667 12.7768 7.74098 11.0169 9.23694 9.52037C10.7329 8.02383 12.4921 6.83894 14.5145 5.96569C16.5369 5.09273 18.6977 4.65625 20.9969 4.65625C23.2964 4.65625 25.4578 5.09258 27.4811 5.96525C29.5044 6.83792 31.2643 8.02223 32.7609 9.51819C34.2574 11.0141 35.4423 12.7733 36.3156 14.7958C37.1885 16.8182 37.625 18.979 37.625 21.2782C37.625 23.5777 37.1887 25.7391 36.316 27.7624C35.4433 29.7857 34.259 31.5456 32.7631 33.0421C31.2671 34.5387 29.5079 35.7236 27.4855 36.5968C25.4631 37.4698 23.3023 37.9062 21.0031 37.9062ZM21 35.2812C24.9083 35.2812 28.2188 33.925 30.9313 31.2125C33.6438 28.5 35 25.1896 35 21.2812C35 17.3729 33.6438 14.0625 30.9313 11.35C28.2188 8.6375 24.9083 7.28125 21 7.28125C17.0917 7.28125 13.7813 8.6375 11.0688 11.35C8.35625 14.0625 7 17.3729 7 21.2812C7 25.1896 8.35625 28.5 11.0688 31.2125C13.7813 33.925 17.0917 35.2812 21 35.2812ZM16.1875 29.5938H22.6433C23.5311 29.5938 24.2813 29.2875 24.8938 28.675C25.5063 28.0625 25.8125 27.3142 25.8125 26.4302V23.6704C25.8125 22.9459 25.5983 22.375 25.1698 21.9576C24.7411 21.5403 24.2261 21.3148 23.625 21.2812C24.2261 21.2477 24.7411 21.0223 25.1698 20.6049C25.5983 20.1875 25.8125 19.6166 25.8125 18.8921V16.1323C25.8125 15.2483 25.5063 14.5 24.8938 13.8875C24.2813 13.275 23.5311 12.9688 22.6433 12.9688H16.1875V15.5938H22.6489C22.8061 15.5938 22.9352 15.6442 23.0361 15.7451C23.137 15.846 23.1875 15.9751 23.1875 16.1323V19.4302C23.1875 19.5874 23.137 19.7165 23.0361 19.8174C22.9352 19.9183 22.8061 19.9688 22.6489 19.9688H19.3511V22.5938H22.6489C22.8061 22.5938 22.9352 22.6442 23.0361 22.7451C23.137 22.846 23.1875 22.9751 23.1875 23.1323V26.4302C23.1875 26.5874 23.137 26.7165 23.0361 26.8174C22.9352 26.9183 22.8061 26.9688 22.6489 26.9688H16.1875V29.5938Z" fill="#0D81FE"/>
</g>
</svg>
