<svg width="42" height="42" viewBox="0 0 42 42" fill="none" xmlns="http://www.w3.org/2000/svg">
<mask id="mask0_3174_1674" style="mask-type:alpha" maskUnits="userSpaceOnUse" x="0" y="0" width="42" height="42">
<rect width="42" height="42" fill="#D9D9D9"/>
</mask>
<g mask="url(#mask0_3174_1674)">
<path d="M4.375 35.0015V22.3477H17.0288V35.0015H4.375ZM7 32.3765H14.4038V24.9727H7V32.3765ZM37.7899 39.1879L33.1861 34.5841C32.6072 35.0035 31.9716 35.3238 31.2795 35.5448C30.5874 35.7659 29.8533 35.8765 29.0771 35.8765C27.069 35.8765 25.3667 35.1781 23.9702 33.7813C22.5734 32.3848 21.875 30.6825 21.875 28.6743C21.875 26.6665 22.5734 24.9642 23.9702 23.5674C25.3667 22.1709 27.069 21.4727 29.0771 21.4727C31.085 21.4727 32.7873 22.1709 34.1841 23.5674C35.5806 24.9642 36.2788 26.6665 36.2788 28.6743C36.2788 29.4327 36.1683 30.1551 35.9472 30.8417C35.7264 31.5283 35.4207 32.1611 35.0302 32.74L39.634 37.3438L37.7899 39.1879ZM29.0763 33.2515C30.3578 33.2515 31.4412 32.809 32.3264 31.9241C33.2114 31.0395 33.6538 29.9565 33.6538 28.6752C33.6538 27.3936 33.2115 26.3102 32.3269 25.425C31.442 24.5401 30.3589 24.0977 29.0776 24.0977C27.796 24.0977 26.7127 24.54 25.8278 25.4246C24.9426 26.3095 24.5 27.3926 24.5 28.6739C24.5 29.9555 24.9425 31.0387 25.8274 31.9237C26.712 32.8089 27.795 33.2515 29.0763 33.2515Z" fill="#0D81FE"/>
<path d="M23.6154 16.9879L13.2017 6.59197L15.2081 4.5767L25.6129 14.9904L23.6154 16.9879ZM15.2081 16.9879L13.2017 14.9904L23.6154 4.5767L25.6129 6.59197L15.2081 16.9879Z" fill="#0D81FE"/>
</g>
</svg>
